# xmcd
#
# Track frame offsets: 
#        150
#        13931
#        27520
#        40663
#        51880
#        64228
#        76718
#        88955
#        101660
#        113419
#        125581
#        138858
#        151657
#        163001
#        177823
#        189416
#        201622
#        212904
#        226065
#        236937
#        248614
#        260528
#        272559
#        285150
#        297165
#
# Disc length: 4135 seconds
#
# Revision: 2
# Processed by: cddbd v1.5.2PL0 Copyright (c) Steve Scherf et al.
# Submitted via: ExactAudioCopy v0.95b2
#
DISCID=5c102519
DTITLE=Various Artist - The Classic Sides 1951-54) - Disc A (Jackson, MS)
DYEAR=2006
DGENRE=Blues
TTITLE0=Sonny Boy Williamson II - Eyesight To The Blind
TTITLE1=Sonny Boy Williamson II /Crazy About You Baby
TTITLE2=Sonny Boy Williamson II /Stop Crying
TTITLE3=Sonny Boy Williamson II /Do It If You Wanna
TTITLE4=Sonny Boy Williamson II /Cool, Cool Blues
TTITLE5=Sonny Boy Williamson II /Come On Back Home
TTITLE6=Sonny Boy Williamson II /I Cross My Heart
TTITLE7=Sonny Boy Williamson II /West Memphis Blues
TTITLE8=Sonny Boy Williamson II /Sonny Boy's Christmas Blues
TTITLE9=Sonny Boy Williamson II /Pontiac Blues
TTITLE10=Sonny Boy Williamson II /Mighty Long Time
TTITLE11=Sonny Boy Williamson II /Nine Below Zero
TTITLE12=Sonny Boy Williamson II /She Brought Life Back To The Dead (4
TTITLE12=5)
TTITLE13=Sonny Boy Williamson II /She Brought Life Back To The Dead (7
TTITLE13=8)
TTITLE14=Sonny Boy Williamson II /Too Close Together
TTITLE15=Sonny Boy Williamson II /Stop Now Baby
TTITLE16=Sonny Boy Williamson II /Mr. Down Child
TTITLE17=Sonny Boy Williamson II /Cat Hop
TTITLE18=Sonny Boy Williamson II /Gettin' Out Of Town
TTITLE19=Sonny Boy Williamson II /Red Hot Kisses
TTITLE20=Sonny Boy Williamson II /Going In Your Direction
TTITLE21=Sonny Boy Williamson II /Empty Bedroom
TTITLE22=Sonny Boy Williamson II /Boppin' With Sonny
TTITLE23=Sonny Boy Williamson II /From The Bottom
TTITLE24=Sonny Boy Williamson II /No Nights By Myself
EXTD=YEAR: 2006
EXTT0=
EXTT1=
EXTT2=
EXTT3=
EXTT4=
EXTT5=
EXTT6=
EXTT7=
EXTT8=
EXTT9=
EXTT10=
EXTT11=
EXTT12=
EXTT13=
EXTT14=
EXTT15=
EXTT16=
EXTT17=
EXTT18=
EXTT19=
EXTT20=
EXTT21=
EXTT22=
EXTT23=
EXTT24=
PLAYORDER=
